<svg width="369" height="163" viewBox="0 0 369 163" fill="none" xmlns="http://www.w3.org/2000/svg">
<g filter="url(#filter0_i_333_22)">
<path d="M132.698 71.768L132.25 64.92C132.634 63.896 133.338 62.9253 134.362 62.008C135.386 61.0693 136.602 60.312 138.01 59.736C139.418 59.1387 140.9 58.84 142.458 58.84C143.098 58.84 143.684 58.872 144.218 58.936C144.772 59 145.178 59.1067 145.434 59.256V68.76C145.135 68.568 144.676 68.376 144.058 68.184C143.439 67.992 142.5 67.896 141.242 67.896C139.706 67.896 138.383 68.12 137.274 68.568C136.164 68.9947 135.226 69.5173 134.458 70.136C133.711 70.7333 133.124 71.2773 132.698 71.768ZM123.514 95V59.384H131.962L132.506 64.952L133.274 66.648V95H123.514ZM166.247 95.512C160.764 95.512 156.562 93.88 153.639 90.616C150.716 87.352 149.255 82.84 149.255 77.08C149.255 73.624 149.916 70.5307 151.239 67.8C152.583 65.0693 154.524 62.9147 157.063 61.336C159.602 59.736 162.706 58.9253 166.375 58.904C168.231 58.8827 170.002 59.1173 171.687 59.608C173.372 60.0987 174.876 60.8987 176.199 62.008C177.522 63.096 178.578 64.5467 179.367 66.36C180.178 68.152 180.594 70.3493 180.615 72.952C180.615 74.2533 180.594 75.4587 180.551 76.568C180.508 77.6773 180.412 78.6267 180.263 79.416H154.503L155.143 74.136H171.527C171.634 72.408 171.538 70.8933 171.239 69.592C170.962 68.2693 170.407 67.2453 169.575 66.52C168.743 65.7733 167.57 65.4 166.055 65.4C164.583 65.4 163.292 65.8053 162.183 66.616C161.095 67.4267 160.252 68.824 159.655 70.808C159.079 72.7707 158.834 75.48 158.919 78.936C159.004 81.2613 159.452 83.128 160.263 84.536C161.095 85.9227 162.215 86.9253 163.623 87.544C165.052 88.1413 166.706 88.44 168.583 88.44C169.607 88.44 170.727 88.3547 171.943 88.184C173.159 88.0133 174.311 87.7893 175.399 87.512C176.487 87.2133 177.319 86.9147 177.895 86.616L179.527 91.928C178.738 92.568 177.65 93.1653 176.263 93.72C174.898 94.2533 173.34 94.68 171.591 95C169.863 95.3413 168.082 95.512 166.247 95.512ZM210.766 95V90.552L210.062 90.072V65.912L210.318 65.688L210.062 56.664V43H219.726V95H210.766ZM200.27 95.512C197.752 95.512 195.427 94.8933 193.294 93.656C191.182 92.3973 189.475 90.5093 188.174 87.992C186.872 85.4747 186.222 82.2853 186.222 78.424C186.222 74.4773 186.968 71.0427 188.462 68.12C189.955 65.176 192.046 62.904 194.734 61.304C197.422 59.704 200.579 58.904 204.206 58.904C206.403 58.904 208.206 59.1387 209.614 59.608C211.043 60.0773 211.96 60.472 212.366 60.792L210.094 66.968C209.56 66.52 208.803 66.2107 207.822 66.04C206.84 65.848 205.72 65.752 204.462 65.752C202.926 65.752 201.539 66.2 200.302 67.096C199.086 67.9707 198.115 69.304 197.39 71.096C196.686 72.8667 196.334 75.0853 196.334 77.752C196.291 81.4427 196.899 84.088 198.158 85.688C199.438 87.288 201.187 88.088 203.406 88.088C204.771 88.088 206.051 87.8533 207.246 87.384C208.462 86.9147 209.411 86.4347 210.094 85.944L211.278 90.808C210.787 91.3413 210.083 91.9813 209.166 92.728C208.248 93.4533 207.064 94.104 205.614 94.68C204.163 95.2347 202.382 95.512 200.27 95.512ZM229.934 95V59.384H239.694V95H229.934ZM234.318 54.232C232.739 54.232 231.406 53.7413 230.318 52.76C229.23 51.7787 228.686 50.4987 228.686 48.92C228.686 47.8533 228.974 46.8827 229.55 46.008C230.147 45.112 230.915 44.3973 231.854 43.864C232.814 43.3307 233.838 43.064 234.926 43.064C236.675 43.064 238.041 43.5653 239.022 44.568C240.025 45.5493 240.526 46.8187 240.526 48.376C240.526 49.9973 239.907 51.384 238.67 52.536C237.454 53.6667 236.003 54.232 234.318 54.232ZM259.019 95.512C256.758 95.512 254.774 95.0533 253.067 94.136C251.36 93.2187 250.027 91.9387 249.067 90.296C248.128 88.6533 247.659 86.744 247.659 84.568C247.659 82.392 248.246 80.5253 249.419 78.968C250.614 77.4107 252.224 76.1947 254.251 75.32C255.638 74.744 257.152 74.296 258.795 73.976C260.459 73.656 262.112 73.432 263.755 73.304C265.419 73.176 266.966 73.112 268.395 73.112L270.027 75.128L268.395 78.264C267.627 78.264 266.763 78.3173 265.803 78.424C264.843 78.5307 263.915 78.6907 263.019 78.904C262.144 79.096 261.408 79.32 260.811 79.576C259.979 79.96 259.232 80.472 258.571 81.112C257.931 81.752 257.611 82.7333 257.611 84.056C257.611 85.784 258.091 87.064 259.051 87.896C260.011 88.7067 261.248 89.112 262.763 89.112C263.552 89.112 264.331 89.0053 265.099 88.792C265.888 88.5787 266.582 88.3333 267.179 88.056C267.776 87.7573 268.182 87.48 268.395 87.224L270.091 89.24L268.907 91.992C267.947 92.8453 266.624 93.6453 264.939 94.392C263.275 95.1387 261.302 95.512 259.019 95.512ZM278.155 95H268.907V89.688H268.395V70.488C268.395 68.6747 267.915 67.4907 266.955 66.936C265.995 66.36 264.619 66.072 262.827 66.072C261.483 66.072 260.075 66.1893 258.603 66.424C257.152 66.6587 255.776 66.968 254.475 67.352C253.174 67.736 252.086 68.152 251.211 68.6L249.099 62.456C249.824 62.0293 250.955 61.528 252.491 60.952C254.027 60.376 255.787 59.8747 257.771 59.448C259.755 59 261.75 58.776 263.755 58.776C267.04 58.776 269.739 59.16 271.851 59.928C273.984 60.696 275.563 61.9973 276.587 63.832C277.632 65.6667 278.155 68.2053 278.155 71.448V95ZM287.742 95V59.384H296.606L296.766 63.384C297.577 62.7013 298.611 62.0187 299.87 61.336C301.129 60.632 302.515 60.0453 304.03 59.576C305.566 59.1067 307.113 58.8613 308.67 58.84C312.382 58.7547 315.113 59.7467 316.862 61.816C318.611 63.864 319.486 67.4693 319.486 72.632V95H309.694V74.008C309.694 71.2347 309.331 69.2933 308.606 68.184C307.881 67.0747 306.462 66.5627 304.35 66.648C303.71 66.6693 302.985 66.7867 302.174 67C301.385 67.192 300.574 67.4907 299.742 67.896C298.931 68.28 298.174 68.76 297.47 69.336V95H287.742Z" fill="white"/>
</g>
<g filter="url(#filter1_i_333_22)">
<path d="M133.257 28.0872C135.566 25.7502 135.58 21.9722 133.107 19.8104C122.362 10.4181 109.324 4.04514 95.3015 1.38953C79.3434 -1.63267 62.8556 0.300835 48.0024 6.93623C33.1492 13.5716 20.6248 24.5988 12.0731 38.5703C3.52146 52.5418 -0.657746 68.8046 0.0840812 85.224C0.825909 101.643 6.4541 117.452 16.2299 130.575C26.0056 143.698 39.4721 153.521 54.8616 158.756C70.2511 163.991 86.8444 164.392 102.463 159.908C116.19 155.967 128.599 148.414 138.453 138.066C140.719 135.687 140.36 131.925 137.847 129.809L129.948 123.154C127.391 121.001 123.588 121.377 121.211 123.726C114.289 130.567 105.769 135.579 96.4018 138.269C85.0935 141.515 73.0797 141.225 61.9374 137.435C50.7952 133.644 41.0452 126.532 33.9674 117.031C26.8896 107.53 22.8147 96.0842 22.2776 84.1962C21.7405 72.3083 24.7663 60.5338 30.9579 50.4182C37.1494 40.3026 46.2173 32.3188 56.9712 27.5147C67.7252 22.7105 79.6626 21.3107 91.2165 23.4988C100.784 25.3107 109.719 29.5129 117.227 35.6825C119.81 37.8045 123.632 37.8319 125.981 35.4538L133.257 28.0872Z" fill="white"/>
</g>
<g filter="url(#filter2_i_333_22)">
<path d="M78.7579 115.288C72.1339 115.288 66.5986 113.923 62.1519 111.194C57.7359 108.434 54.4239 104.539 52.2159 99.51C50.0079 94.45 48.9039 88.4853 48.9039 81.616C48.9039 73.8573 50.1459 67.2947 52.6299 61.928C55.1139 56.5307 58.6406 52.406 63.2099 49.554C67.7792 46.6713 73.1919 45.1227 79.4479 44.908C82.8212 44.7853 85.5506 44.908 87.6359 45.276C89.7212 45.6133 91.4539 46.0273 92.8339 46.518C94.2446 47.0087 95.5786 47.392 96.8359 47.668L94.4439 58.616C93.3706 57.972 92.2512 57.4353 91.0859 57.006C89.9512 56.546 88.5712 56.1933 86.9459 55.948C85.3512 55.7027 83.3119 55.58 80.8279 55.58C77.4546 55.5493 74.4492 56.3467 71.8119 57.972C69.2052 59.5973 67.1506 62.112 65.6479 65.516C64.1759 68.8893 63.4399 73.198 63.4399 78.442C63.4399 82.2447 63.7006 85.7713 64.2219 89.022C64.7432 92.242 65.6479 95.0327 66.9359 97.394C68.2239 99.7553 69.9872 101.611 72.2259 102.96C74.4952 104.279 77.3626 104.938 80.8279 104.938C83.8332 104.938 86.6392 104.585 89.2459 103.88C91.8832 103.144 93.9532 102.255 95.4559 101.212L98.1239 111.792C97.1426 111.915 96.1766 112.175 95.2259 112.574C94.2752 112.942 93.1252 113.341 91.7759 113.77C90.4266 114.169 88.7092 114.521 86.6239 114.828C84.5692 115.135 81.9472 115.288 78.7579 115.288ZM41.9579 75.452V67.264H87.6359V75.452H41.9579ZM40.5319 92.196V83.962H85.7499V92.196H40.5319Z" fill="white"/>
</g>
<defs>
<filter id="filter0_i_333_22" x="123.514" y="43" width="195.972" height="56.512" filterUnits="userSpaceOnUse" color-interpolation-filters="sRGB">
<feFlood flood-opacity="0" result="BackgroundImageFix"/>
<feBlend mode="normal" in="SourceGraphic" in2="BackgroundImageFix" result="shape"/>
<feColorMatrix in="SourceAlpha" type="matrix" values="0 0 0 0 0 0 0 0 0 0 0 0 0 0 0 0 0 0 127 0" result="hardAlpha"/>
<feOffset dy="4"/>
<feGaussianBlur stdDeviation="2"/>
<feComposite in2="hardAlpha" operator="arithmetic" k2="-1" k3="1"/>
<feColorMatrix type="matrix" values="0 0 0 0 0 0 0 0 0 0 0 0 0 0 0 0 0 0 0.42 0"/>
<feBlend mode="normal" in2="shape" result="effect1_innerShadow_333_22"/>
</filter>
<filter id="filter1_i_333_22" x="0" y="-6.10352e-05" width="139.96" height="167" filterUnits="userSpaceOnUse" color-interpolation-filters="sRGB">
<feFlood flood-opacity="0" result="BackgroundImageFix"/>
<feBlend mode="normal" in="SourceGraphic" in2="BackgroundImageFix" result="shape"/>
<feColorMatrix in="SourceAlpha" type="matrix" values="0 0 0 0 0 0 0 0 0 0 0 0 0 0 0 0 0 0 127 0" result="hardAlpha"/>
<feOffset dy="4"/>
<feGaussianBlur stdDeviation="2"/>
<feComposite in2="hardAlpha" operator="arithmetic" k2="-1" k3="1"/>
<feColorMatrix type="matrix" values="0 0 0 0 0 0 0 0 0 0 0 0 0 0 0 0 0 0 0.42 0"/>
<feBlend mode="normal" in2="shape" result="effect1_innerShadow_333_22"/>
</filter>
<filter id="filter2_i_333_22" x="40.5319" y="44.724" width="57.592" height="74.564" filterUnits="userSpaceOnUse" color-interpolation-filters="sRGB">
<feFlood flood-opacity="0" result="BackgroundImageFix"/>
<feBlend mode="normal" in="SourceGraphic" in2="BackgroundImageFix" result="shape"/>
<feColorMatrix in="SourceAlpha" type="matrix" values="0 0 0 0 0 0 0 0 0 0 0 0 0 0 0 0 0 0 127 0" result="hardAlpha"/>
<feOffset dy="4"/>
<feGaussianBlur stdDeviation="2"/>
<feComposite in2="hardAlpha" operator="arithmetic" k2="-1" k3="1"/>
<feColorMatrix type="matrix" values="0 0 0 0 0 0 0 0 0 0 0 0 0 0 0 0 0 0 0.42 0"/>
<feBlend mode="normal" in2="shape" result="effect1_innerShadow_333_22"/>
</filter>
</defs>
</svg>
